<svg width="120" height="64" viewBox="0 0 120 64" fill="none" xmlns="http://www.w3.org/2000/svg">
<path d="M67.4843 13.512C66.3323 14.152 64.5189 14.8347 62.0443 15.56C59.6123 16.2853 57.6069 16.7973 56.0283 17.096C53.5536 17.5653 51.0576 17.9493 48.5403 18.248C46.0656 18.504 44.4656 18.6533 43.7403 18.696C43.7829 21.1707 43.8469 23.7307 43.9323 26.376C44.0176 28.9787 44.0816 30.7707 44.1243 31.752C45.7883 31.5387 48.2843 31.1333 51.6123 30.536L54.0443 30.152C56.7323 29.6827 58.8016 28.8293 60.2523 27.592C61.0203 26.9947 61.5749 26.696 61.9163 26.696C62.2149 26.696 62.4496 26.8667 62.6203 27.208C62.8336 27.5067 62.9403 27.8267 62.9403 28.168C62.9403 28.936 62.0656 29.7893 60.3163 30.728C58.6096 31.624 56.7109 32.2853 54.6203 32.712C52.8709 33.096 50.9083 33.4587 48.7323 33.8C46.5563 34.1413 45.1269 34.3547 44.4443 34.44C44.7003 41.736 45.4469 47.1547 46.6843 50.696C47.9216 51.1227 49.1376 51.4427 50.3323 51.656C51.5269 51.8267 53.0629 51.912 54.9403 51.912C56.8176 51.912 58.6096 51.6773 60.3163 51.208C62.0229 50.696 63.3883 50.0773 64.4123 49.352C65.4789 48.6267 66.0123 47.944 66.0123 47.304C66.0123 46.9627 65.9483 46.6427 65.8203 46.344C65.6923 46.0027 65.5216 45.6613 65.3083 45.32C65.2229 45.192 65.0736 45 64.8603 44.744C64.6896 44.4453 64.6043 44.2107 64.6043 44.04C64.6043 43.6133 65.0736 43.4 66.0123 43.4C66.6949 43.4 67.2709 43.6987 67.7403 44.296C68.2523 44.8507 68.5083 45.4693 68.5083 46.152C68.5083 47.5173 67.8896 48.8613 66.6523 50.184C65.4576 51.5067 63.7936 52.5733 61.6603 53.384C59.5696 54.2373 57.2443 54.664 54.6843 54.664C52.0816 54.664 49.9483 54.5147 48.2843 54.216C46.6203 53.96 45.3616 53.4267 44.5083 52.616C43.4843 51.464 42.7589 49.4587 42.3323 46.6C41.9483 43.7413 41.6069 39.9227 41.3083 35.144C40.4976 35.3573 39.5803 35.5493 38.5563 35.72C37.5749 35.848 36.8283 35.912 36.3163 35.912C35.8043 35.912 35.3776 35.7627 35.0363 35.464C34.7376 35.1227 34.5883 34.7173 34.5883 34.248C34.5883 33.9493 34.6309 33.6933 34.7163 33.48C34.8443 33.2667 35.0149 33.1387 35.2283 33.096C36.6363 32.9253 37.6603 32.8187 38.3003 32.776L41.0523 32.456C40.8816 26.952 40.7109 22.472 40.5403 19.016C39.9003 19.016 39.3883 19.0373 39.0043 19.08L36.0603 19.144C35.6763 19.144 35.3776 19.0373 35.1643 18.824C34.9509 18.6107 34.8443 18.376 34.8443 18.12C34.8443 17.096 35.5269 16.4133 36.8923 16.072C37.4043 15.9867 38.0443 15.9013 38.8123 15.816C39.6229 15.688 40.1563 15.624 40.4123 15.624C41.2229 14.728 42.1189 14.28 43.1003 14.28C43.2709 14.28 43.3989 14.4293 43.4843 14.728C43.6123 14.984 43.6763 15.176 43.6763 15.304C46.4923 15.176 49.8416 14.856 53.7243 14.344C56.2843 14.0027 60.2309 13.192 65.5643 11.912L67.9323 11.4C68.3589 11.4 68.5723 11.656 68.5723 12.168C68.5723 12.68 68.2096 13.128 67.4843 13.512ZM106.703 34.76C106.405 35.016 105.786 35.2507 104.847 35.464C103.909 35.6347 103.269 35.7413 102.927 35.784C103.269 37.4053 103.439 38.1947 103.439 38.152C103.738 39.2187 104.058 40.6907 104.399 42.568C105.167 46.8773 105.957 50.5467 106.767 53.576C106.981 54.5573 107.087 55.1333 107.087 55.304C107.087 55.7307 106.917 56.0933 106.575 56.392C106.234 56.6907 105.829 56.84 105.359 56.84C104.933 56.84 104.549 56.6053 104.207 56.136C103.866 55.7093 103.631 55.3253 103.503 54.984C103.119 53.5333 102.757 51.912 102.415 50.12C102.117 48.328 101.754 46.1733 101.327 43.656C101.157 42.5467 100.879 41.1813 100.495 39.56C100.111 37.896 99.8553 36.808 99.7273 36.296C97.2099 36.6373 92.8793 37.32 86.7353 38.344L83.0233 38.984L81.6793 42.76L79.8873 47.88C78.3939 52.5307 77.3273 56.1147 76.6873 58.632C76.5593 59.2293 76.3033 59.72 75.9193 60.104C75.5353 60.5307 75.0659 60.744 74.5113 60.744C74.0419 60.744 73.6366 60.616 73.2953 60.36C72.9966 60.104 72.8473 59.7413 72.8473 59.272C72.8473 58.8027 73.1033 57.8 73.6153 56.264C74.1273 54.7707 74.4259 53.8747 74.5113 53.576C74.6819 53.1493 75.0233 52.168 75.5353 50.632C76.0899 48.968 76.7939 46.9627 77.6473 44.616C78.5433 42.2267 79.1406 40.648 79.4392 39.88C77.2633 40.392 75.6419 40.7973 74.5753 41.096C72.9539 41.5227 71.9512 41.736 71.5673 41.736C71.0979 41.736 70.7353 41.5653 70.4793 41.224C70.2659 40.84 70.1593 40.4347 70.1593 40.008C70.1593 39.496 70.2873 39.1547 70.5433 38.984C70.7993 38.7707 71.2259 38.5787 71.8233 38.408C73.4446 38.024 75.1513 37.64 76.9433 37.256C78.7779 36.872 80.0366 36.616 80.7193 36.488C81.1459 35.2507 81.4659 34.2053 81.6793 33.352C81.8499 32.7973 82.0633 32.1147 82.3193 31.304C82.6179 30.4507 82.9379 29.4053 83.2793 28.168L84.2393 24.904C85.8606 19.1867 86.7993 15.9227 87.0553 15.112C87.2686 14.5147 87.4606 14.0453 87.6313 13.704C87.8446 13.3627 88.1219 13.192 88.4633 13.192C89.3166 13.192 90.0846 13.32 90.7673 13.576C90.8526 13.4907 90.9806 13.32 91.1513 13.064C91.3646 12.7653 91.5779 12.5733 91.7913 12.488C92.0473 12.36 92.3673 12.296 92.7513 12.296C93.5193 12.296 94.3939 13.1707 95.3753 14.92C96.3993 16.6693 97.3806 18.7387 98.3193 21.128C98.8739 22.536 99.5779 24.648 100.431 27.464C101.285 30.2373 101.839 32.072 102.095 32.968C102.735 32.8827 103.269 32.776 103.695 32.648C104.165 32.4773 104.463 32.3707 104.591 32.328C104.805 32.2427 105.039 32.0933 105.295 31.88C105.551 31.6667 105.786 31.5173 105.999 31.432C106.213 31.304 106.447 31.304 106.703 31.432C107.258 31.688 107.535 32.2213 107.535 33.032C107.535 33.3307 107.45 33.6507 107.279 33.992C107.151 34.3333 106.959 34.5893 106.703 34.76ZM95.8873 22.664C95.2899 21.0853 94.5219 19.464 93.5833 17.8C92.6446 16.136 91.8553 15.0907 91.2153 14.664L90.5113 16.328C89.7006 17.9493 89.0819 19.4213 88.6553 20.744C87.6313 23.816 86.0099 28.8933 83.7913 35.976L91.2793 34.696L97.4233 33.736L99.1513 33.48C98.9379 32.712 98.4899 31.112 97.8073 28.68C97.1246 26.2053 96.4846 24.2 95.8873 22.664Z" fill="#FF8630"/>
<path d="M6.05783 39.1052L0 32.7414L19.5989 12H31.67L6.05783 39.1052ZM19.5989 53.4828L9.04221 42.3107L19.5989 31.1386H31.67L21.1133 42.3107L31.67 53.4828H19.5989Z" fill="#FF6A00" fill-opacity="0.81"/>
</svg>
